<mxfile host="app.diagrams.net" modified="2020-08-05T16:33:29.543Z" agent="5.0 (Windows NT 10.0; Win64; x64) AppleWebKit/537.36 (KHTML, like Gecko) Chrome/84.0.4147.105 Safari/537.36" etag="1eztwDPvo3WRNLHSQ3i7" version="13.5.9" type="github">
  <diagram id="prtHgNgQTEPvFCAcTncT" name="Page-1">
    <mxGraphModel dx="731" dy="459" grid="1" gridSize="10" guides="1" tooltips="1" connect="1" arrows="1" fold="1" page="1" pageScale="1" pageWidth="827" pageHeight="1169" math="0" shadow="0">
      <root>
        <mxCell id="0" />
        <mxCell id="1" parent="0" />
        <mxCell id="m0RZPSVap7t2fpv9oxeb-20" value="" style="rounded=1;whiteSpace=wrap;html=1;" parent="1" vertex="1">
          <mxGeometry x="70" y="305" width="660" height="455" as="geometry" />
        </mxCell>
        <mxCell id="m0RZPSVap7t2fpv9oxeb-1" value="" style="rounded=1;whiteSpace=wrap;html=1;fillColor=#1ba1e2;strokeColor=#006EAF;fontColor=#ffffff;" parent="1" vertex="1">
          <mxGeometry x="120" y="360" width="160" height="240" as="geometry" />
        </mxCell>
        <mxCell id="m0RZPSVap7t2fpv9oxeb-5" value="Uplifter" style="text;html=1;strokeColor=none;fillColor=none;align=center;verticalAlign=middle;whiteSpace=wrap;rounded=0;" parent="1" vertex="1">
          <mxGeometry x="155" y="400" width="90" height="20" as="geometry" />
        </mxCell>
        <mxCell id="m0RZPSVap7t2fpv9oxeb-6" value="Sweep Up&amp;nbsp;" style="text;html=1;strokeColor=none;fillColor=none;align=center;verticalAlign=middle;whiteSpace=wrap;rounded=0;" parent="1" vertex="1">
          <mxGeometry x="120" y="440" width="160" height="20" as="geometry" />
        </mxCell>
        <mxCell id="m0RZPSVap7t2fpv9oxeb-7" value="White Noise" style="text;html=1;strokeColor=none;fillColor=none;align=center;verticalAlign=middle;whiteSpace=wrap;rounded=0;" parent="1" vertex="1">
          <mxGeometry x="150" y="480" width="100" height="20" as="geometry" />
        </mxCell>
        <mxCell id="m0RZPSVap7t2fpv9oxeb-8" value="FX" style="text;html=1;strokeColor=none;fillColor=none;align=center;verticalAlign=middle;whiteSpace=wrap;rounded=0;" parent="1" vertex="1">
          <mxGeometry x="180" y="340" width="40" height="20" as="geometry" />
        </mxCell>
        <mxCell id="m0RZPSVap7t2fpv9oxeb-9" value="" style="rounded=1;whiteSpace=wrap;html=1;strokeColor=#6D1F00;fontColor=#ffffff;fillColor=#a0522d;" parent="1" vertex="1">
          <mxGeometry x="320" y="360" width="160" height="240" as="geometry" />
        </mxCell>
        <mxCell id="m0RZPSVap7t2fpv9oxeb-11" value="Snare -- 4/4&amp;nbsp; 8/8 16/16" style="text;html=1;strokeColor=none;fillColor=none;align=center;verticalAlign=middle;whiteSpace=wrap;rounded=0;" parent="1" vertex="1">
          <mxGeometry x="305" y="400" width="190" height="20" as="geometry" />
        </mxCell>
        <mxCell id="m0RZPSVap7t2fpv9oxeb-12" value="Quick Small Loop" style="text;html=1;strokeColor=none;fillColor=none;align=center;verticalAlign=middle;whiteSpace=wrap;rounded=0;" parent="1" vertex="1">
          <mxGeometry x="337.5" y="565" width="125" height="20" as="geometry" />
        </mxCell>
        <mxCell id="m0RZPSVap7t2fpv9oxeb-13" value="Drum" style="text;html=1;strokeColor=none;fillColor=none;align=center;verticalAlign=middle;whiteSpace=wrap;rounded=0;" parent="1" vertex="1">
          <mxGeometry x="380" y="340" width="40" height="20" as="geometry" />
        </mxCell>
        <mxCell id="m0RZPSVap7t2fpv9oxeb-14" value="" style="rounded=1;whiteSpace=wrap;html=1;fillColor=#60a917;strokeColor=#2D7600;fontColor=#ffffff;" parent="1" vertex="1">
          <mxGeometry x="520" y="360" width="160" height="240" as="geometry" />
        </mxCell>
        <mxCell id="m0RZPSVap7t2fpv9oxeb-15" value="Fliter Melody" style="text;html=1;strokeColor=none;fillColor=none;align=center;verticalAlign=middle;whiteSpace=wrap;rounded=0;" parent="1" vertex="1">
          <mxGeometry x="550" y="400" width="100" height="20" as="geometry" />
        </mxCell>
        <mxCell id="m0RZPSVap7t2fpv9oxeb-18" value="Melody" style="text;html=1;strokeColor=none;fillColor=none;align=center;verticalAlign=middle;whiteSpace=wrap;rounded=0;" parent="1" vertex="1">
          <mxGeometry x="580" y="340" width="40" height="20" as="geometry" />
        </mxCell>
        <mxCell id="m0RZPSVap7t2fpv9oxeb-21" value="Build Up" style="text;html=1;strokeColor=none;fillColor=none;align=center;verticalAlign=middle;whiteSpace=wrap;rounded=0;" parent="1" vertex="1">
          <mxGeometry x="365" y="285" width="70" height="20" as="geometry" />
        </mxCell>
        <mxCell id="_SBC7PhoCTFk9qtBru0z-1" value="Crash/Impact 1/5 Bar" style="text;html=1;strokeColor=none;fillColor=none;align=center;verticalAlign=middle;whiteSpace=wrap;rounded=0;" parent="1" vertex="1">
          <mxGeometry x="127.5" y="522.5" width="145" height="20" as="geometry" />
        </mxCell>
        <mxCell id="_SBC7PhoCTFk9qtBru0z-2" value="Pad Dark" style="text;html=1;strokeColor=none;fillColor=none;align=center;verticalAlign=middle;whiteSpace=wrap;rounded=0;" parent="1" vertex="1">
          <mxGeometry x="555" y="490" width="90" height="20" as="geometry" />
        </mxCell>
        <mxCell id="_SBC7PhoCTFk9qtBru0z-3" value="" style="rounded=1;whiteSpace=wrap;html=1;fillColor=#1ba1e2;arcSize=24;strokeColor=#006EAF;fontColor=#ffffff;" parent="1" vertex="1">
          <mxGeometry x="120" y="620" width="160" height="100" as="geometry" />
        </mxCell>
        <mxCell id="_SBC7PhoCTFk9qtBru0z-4" value="Panning Automation" style="text;html=1;strokeColor=none;fillColor=none;align=center;verticalAlign=middle;whiteSpace=wrap;rounded=0;" parent="1" vertex="1">
          <mxGeometry x="130" y="630" width="140" height="20" as="geometry" />
        </mxCell>
        <mxCell id="_SBC7PhoCTFk9qtBru0z-5" value="Trasition FX" style="text;html=1;strokeColor=none;fillColor=none;align=center;verticalAlign=middle;whiteSpace=wrap;rounded=0;" parent="1" vertex="1">
          <mxGeometry x="160" y="690" width="80" height="20" as="geometry" />
        </mxCell>
        <mxCell id="_SBC7PhoCTFk9qtBru0z-6" value="Volume Automation" style="text;html=1;strokeColor=none;fillColor=none;align=center;verticalAlign=middle;whiteSpace=wrap;rounded=0;" parent="1" vertex="1">
          <mxGeometry x="130" y="660" width="140" height="20" as="geometry" />
        </mxCell>
        <mxCell id="_SBC7PhoCTFk9qtBru0z-8" value="" style="rounded=1;whiteSpace=wrap;html=1;fillColor=#a0522d;strokeColor=#6D1F00;fontColor=#ffffff;" parent="1" vertex="1">
          <mxGeometry x="325" y="620" width="155" height="100" as="geometry" />
        </mxCell>
        <mxCell id="_SBC7PhoCTFk9qtBru0z-11" value="Arp 16/16" style="text;html=1;strokeColor=none;fillColor=none;align=center;verticalAlign=middle;whiteSpace=wrap;rounded=0;" parent="1" vertex="1">
          <mxGeometry x="555" y="565" width="90" height="20" as="geometry" />
        </mxCell>
        <mxCell id="_SBC7PhoCTFk9qtBru0z-12" value="" style="rounded=1;whiteSpace=wrap;html=1;fillColor=#60a917;strokeColor=#2D7600;fontColor=#ffffff;" parent="1" vertex="1">
          <mxGeometry x="520" y="620" width="160" height="100" as="geometry" />
        </mxCell>
        <mxCell id="_SBC7PhoCTFk9qtBru0z-13" value="Fliter Automation" style="text;html=1;strokeColor=none;fillColor=none;align=center;verticalAlign=middle;whiteSpace=wrap;rounded=0;" parent="1" vertex="1">
          <mxGeometry x="535" y="630" width="130" height="20" as="geometry" />
        </mxCell>
        <mxCell id="_SBC7PhoCTFk9qtBru0z-15" value="Sidechain Automation" style="text;html=1;strokeColor=none;fillColor=none;align=center;verticalAlign=middle;whiteSpace=wrap;rounded=0;" parent="1" vertex="1">
          <mxGeometry x="530" y="690" width="140" height="20" as="geometry" />
        </mxCell>
        <mxCell id="JIbGigGeMl1hhgeZxe_j-1" value="Sub Drop 1/5 Bar" style="text;html=1;strokeColor=none;fillColor=none;align=center;verticalAlign=middle;whiteSpace=wrap;rounded=0;" parent="1" vertex="1">
          <mxGeometry x="145" y="560" width="110" height="20" as="geometry" />
        </mxCell>
        <mxCell id="JIbGigGeMl1hhgeZxe_j-2" value="" style="endArrow=none;html=1;strokeWidth=1;exitX=0.005;exitY=0.65;exitDx=0;exitDy=0;exitPerimeter=0;fontSize=8;" parent="1" source="m0RZPSVap7t2fpv9oxeb-1" edge="1">
          <mxGeometry width="50" height="50" relative="1" as="geometry">
            <mxPoint x="10" y="480" as="sourcePoint" />
            <mxPoint x="281" y="516" as="targetPoint" />
          </mxGeometry>
        </mxCell>
      </root>
    </mxGraphModel>
  </diagram>
</mxfile>
